<?xml version="1.0" encoding="UTF-8"?><svg xmlns="http://www.w3.org/2000/svg" xmlns:xlink="http://www.w3.org/1999/xlink" fill-opacity="1" color-rendering="auto" color-interpolation="auto" text-rendering="auto" stroke="black" stroke-linecap="square" width="460" stroke-miterlimit="10" shape-rendering="auto" stroke-opacity="1" fill="black" stroke-dasharray="none" font-weight="normal" stroke-width="1" height="508" font-family="'Dialog'" font-style="normal" stroke-linejoin="miter" font-size="12px" stroke-dashoffset="0" image-rendering="auto">
  <!--Generated by ySVG 2.6-->
  <defs id="genericDefs"/>
  <g>
    <defs id="defs1">
      <clipPath clipPathUnits="userSpaceOnUse" id="clipPath1">
        <path d="M0 0 L460 0 L460 508 L0 508 L0 0 Z"/>
      </clipPath>
      <clipPath clipPathUnits="userSpaceOnUse" id="clipPath2">
        <path d="M335 93 L795 93 L795 601 L335 601 L335 93 Z"/>
      </clipPath>
    </defs>
    <g fill="white" text-rendering="geometricPrecision" shape-rendering="geometricPrecision" transform="translate(-335,-93)" stroke="white">
      <rect x="335" width="460" height="508" y="93" clip-path="url(#clipPath2)" stroke="none"/>
    </g>
    <g fill="rgb(255,204,0)" text-rendering="geometricPrecision" shape-rendering="geometricPrecision" transform="matrix(1,0,0,1,-335,-93)" stroke="rgb(255,204,0)">
      <path d="M550 162 L565 147 L580 162 L565 177 Z" fill-rule="evenodd" clip-path="url(#clipPath2)" stroke="none"/>
    </g>
    <g text-rendering="geometricPrecision" stroke-miterlimit="1.45" shape-rendering="geometricPrecision" transform="matrix(1,0,0,1,-335,-93)" stroke-linecap="butt">
      <path fill="none" d="M550 162 L565 147 L580 162 L565 177 Z" fill-rule="evenodd" clip-path="url(#clipPath2)"/>
      <text x="527.5" font-size="25px" y="135.5068" clip-path="url(#clipPath2)" font-family="sans-serif" stroke="none" xml:space="preserve">INPUT</text>
    </g>
    <g fill="rgb(255,204,0)" text-rendering="geometricPrecision" shape-rendering="geometricPrecision" transform="matrix(1,0,0,1,-335,-93)" stroke="rgb(255,204,0)">
      <rect x="350.5" width="429" height="71" y="207" clip-path="url(#clipPath2)" stroke="none"/>
    </g>
    <g text-rendering="geometricPrecision" stroke-miterlimit="1.45" shape-rendering="geometricPrecision" transform="matrix(1,0,0,1,-335,-93)" stroke-linecap="butt">
      <rect fill="none" x="350.5" width="429" height="71" y="207" clip-path="url(#clipPath2)"/>
      <text x="383.6584" font-size="25px" y="252.3206" clip-path="url(#clipPath2)" font-family="sans-serif" stroke="none" xml:space="preserve">Matice RGB hodnot všech pixelů</text>
    </g>
    <g fill="rgb(255,204,0)" text-rendering="geometricPrecision" shape-rendering="geometricPrecision" transform="matrix(1,0,0,1,-335,-93)" stroke="rgb(255,204,0)">
      <rect x="350.5" width="429" height="71" y="308" clip-path="url(#clipPath2)" stroke="none"/>
    </g>
    <g text-rendering="geometricPrecision" stroke-miterlimit="1.45" shape-rendering="geometricPrecision" transform="matrix(1,0,0,1,-335,-93)" stroke-linecap="butt">
      <rect fill="none" x="350.5" width="429" height="71" y="308" clip-path="url(#clipPath2)"/>
      <text x="430.8997" font-size="25px" y="353.3206" clip-path="url(#clipPath2)" font-family="sans-serif" stroke="none" xml:space="preserve">Průměrná hodnota RGB</text>
    </g>
    <g fill="rgb(255,204,0)" text-rendering="geometricPrecision" shape-rendering="geometricPrecision" transform="matrix(1,0,0,1,-335,-93)" stroke="rgb(255,204,0)">
      <rect x="350.5" width="429" height="71" y="409" clip-path="url(#clipPath2)" stroke="none"/>
    </g>
    <g text-rendering="geometricPrecision" stroke-miterlimit="1.45" shape-rendering="geometricPrecision" transform="matrix(1,0,0,1,-335,-93)" stroke-linecap="butt">
      <rect fill="none" x="350.5" width="429" height="71" y="409" clip-path="url(#clipPath2)"/>
      <text x="366.2451" font-size="25px" y="454.3206" clip-path="url(#clipPath2)" font-family="sans-serif" stroke="none" xml:space="preserve">Převedená hodnota do modelu HSL</text>
    </g>
    <g fill="rgb(255,204,0)" text-rendering="geometricPrecision" shape-rendering="geometricPrecision" transform="matrix(1,0,0,1,-335,-93)" stroke="rgb(255,204,0)">
      <path d="M550 525 L565 510 L580 525 L565 540 Z" fill-rule="evenodd" clip-path="url(#clipPath2)" stroke="none"/>
    </g>
    <g text-rendering="geometricPrecision" stroke-miterlimit="1.45" shape-rendering="geometricPrecision" transform="matrix(1,0,0,1,-335,-93)" stroke-linecap="butt">
      <path fill="none" d="M550 525 L565 510 L580 525 L565 540 Z" fill-rule="evenodd" clip-path="url(#clipPath2)"/>
      <text x="513.6145" font-size="25px" y="577.7837" clip-path="url(#clipPath2)" font-family="sans-serif" stroke="none" xml:space="preserve">OUTPUT</text>
      <path fill="none" d="M565 176.9758 L565 199" clip-path="url(#clipPath2)"/>
      <path d="M565 207 L570 195 L565 198 L560 195 Z" clip-path="url(#clipPath2)" stroke="none"/>
      <path fill="none" d="M565 278 L565 300" clip-path="url(#clipPath2)"/>
      <path d="M565 308 L570 296 L565 299 L560 296 Z" clip-path="url(#clipPath2)" stroke="none"/>
      <path fill="none" d="M565 379 L565 401" clip-path="url(#clipPath2)"/>
      <path d="M565 409 L570 397 L565 400 L560 397 Z" clip-path="url(#clipPath2)" stroke="none"/>
      <path fill="none" d="M565 480 L565 502.0146" clip-path="url(#clipPath2)"/>
      <path d="M565 510.0146 L570 498.0146 L565 501.0146 L560 498.0146 Z" clip-path="url(#clipPath2)" stroke="none"/>
    </g>
  </g>
</svg>
