<?xml version="1.0" encoding="UTF-8"?><svg xmlns="http://www.w3.org/2000/svg" xmlns:xlink="http://www.w3.org/1999/xlink" fill-opacity="1" color-rendering="auto" color-interpolation="auto" text-rendering="auto" stroke="black" stroke-linecap="square" width="811" stroke-miterlimit="10" shape-rendering="auto" stroke-opacity="1" fill="black" stroke-dasharray="none" font-weight="normal" stroke-width="1" height="361" font-family="'Dialog'" font-style="normal" stroke-linejoin="miter" font-size="12px" stroke-dashoffset="0" image-rendering="auto">
  <!--Generated by ySVG 2.6-->
  <defs id="genericDefs"/>
  <g>
    <defs id="defs1">
      <clipPath clipPathUnits="userSpaceOnUse" id="clipPath1">
        <path d="M0 0 L811 0 L811 361 L0 361 L0 0 Z"/>
      </clipPath>
      <clipPath clipPathUnits="userSpaceOnUse" id="clipPath2">
        <path d="M23 -59 L834 -59 L834 302 L23 302 L23 -59 Z"/>
      </clipPath>
    </defs>
    <g fill="white" text-rendering="geometricPrecision" shape-rendering="geometricPrecision" transform="translate(-23,59)" stroke="white">
      <rect x="23" width="811" height="361" y="-59" clip-path="url(#clipPath2)" stroke="none"/>
    </g>
    <g fill="rgb(255,204,0)" text-rendering="geometricPrecision" shape-rendering="geometricPrecision" transform="matrix(1,0,0,1,-23,59)" stroke="rgb(255,204,0)">
      <rect x="38.837" width="150" height="60" y="136.664" clip-path="url(#clipPath2)" stroke="none"/>
    </g>
    <g text-rendering="geometricPrecision" stroke-miterlimit="1.45" shape-rendering="geometricPrecision" transform="matrix(1,0,0,1,-23,59)" stroke-linecap="butt">
      <rect fill="none" x="38.837" width="150" height="60" y="136.664" clip-path="url(#clipPath2)"/>
      <text x="73.4776" xml:space="preserve" y="171.3779" clip-path="url(#clipPath2)" font-family="sans-serif" stroke="none">Vstupní soubor</text>
    </g>
    <g fill="rgb(255,204,0)" text-rendering="geometricPrecision" shape-rendering="geometricPrecision" transform="matrix(1,0,0,1,-23,59)" stroke="rgb(255,204,0)">
      <rect x="398.837" width="150" height="60" y="226.664" clip-path="url(#clipPath2)" stroke="none"/>
    </g>
    <g text-rendering="geometricPrecision" stroke-miterlimit="1.45" shape-rendering="geometricPrecision" transform="matrix(1,0,0,1,-23,59)" stroke-linecap="butt">
      <rect fill="none" x="398.837" width="150" height="60" y="226.664" clip-path="url(#clipPath2)"/>
      <text x="402.4552" xml:space="preserve" y="261.3779" clip-path="url(#clipPath2)" font-family="sans-serif" stroke="none">Zobrazení průběhu signálu</text>
    </g>
    <g fill="rgb(255,204,0)" text-rendering="geometricPrecision" shape-rendering="geometricPrecision" transform="matrix(1,0,0,1,-23,59)" stroke="rgb(255,204,0)">
      <rect x="398.837" width="150" height="60" y="46.664" clip-path="url(#clipPath2)" stroke="none"/>
    </g>
    <g text-rendering="geometricPrecision" stroke-miterlimit="1.45" shape-rendering="geometricPrecision" transform="matrix(1,0,0,1,-23,59)" stroke-linecap="butt">
      <rect fill="none" x="398.837" width="150" height="60" y="46.664" clip-path="url(#clipPath2)"/>
      <text x="424.1554" xml:space="preserve" y="81.3779" clip-path="url(#clipPath2)" font-family="sans-serif" stroke="none">Parametry syntézy</text>
    </g>
    <g fill="yellow" text-rendering="geometricPrecision" shape-rendering="geometricPrecision" transform="matrix(1,0,0,1,-23,59)" stroke="yellow">
      <path d="M263.8374 -43.336 L398.8353 -43.336 L383.8356 16.664 L248.8374 16.664 Z" fill-rule="evenodd" clip-path="url(#clipPath2)" stroke="none"/>
    </g>
    <g text-rendering="geometricPrecision" stroke-miterlimit="1.45" shape-rendering="geometricPrecision" transform="matrix(1,0,0,1,-23,59)" stroke-linecap="butt">
      <path fill="none" d="M263.8374 -43.336 L398.8353 -43.336 L383.8356 16.664 L248.8374 16.664 Z" fill-rule="evenodd" clip-path="url(#clipPath2)"/>
      <text x="267.8038" xml:space="preserve" y="-8.6221" clip-path="url(#clipPath2)" font-family="sans-serif" stroke="none">Hodnoty z posuvníků</text>
    </g>
    <g fill="yellow" text-rendering="geometricPrecision" shape-rendering="geometricPrecision" transform="matrix(1,0,0,1,-23,59)" stroke="yellow">
      <path d="M563.8362 -43.3359 L698.8354 -43.3359 L683.8354 16.664 L548.8362 16.664 Z" fill-rule="evenodd" clip-path="url(#clipPath2)" stroke="none"/>
    </g>
    <g text-rendering="geometricPrecision" stroke-miterlimit="1.45" shape-rendering="geometricPrecision" transform="matrix(1,0,0,1,-23,59)" stroke-linecap="butt">
      <path fill="none" d="M563.8362 -43.3359 L698.8354 -43.3359 L683.8354 16.664 L548.8362 16.664 Z" fill-rule="evenodd" clip-path="url(#clipPath2)"/>
      <text x="588.1505" xml:space="preserve" y="-8.6221" clip-path="url(#clipPath2)" font-family="sans-serif" stroke="none">Hodnoty HSL</text>
    </g>
    <g fill="rgb(255,204,0)" text-rendering="geometricPrecision" shape-rendering="geometricPrecision" transform="matrix(1,0,0,1,-23,59)" stroke="rgb(255,204,0)">
      <rect x="398.837" width="150" height="60" y="136.664" clip-path="url(#clipPath2)" stroke="none"/>
    </g>
    <g text-rendering="geometricPrecision" stroke-miterlimit="1.45" shape-rendering="geometricPrecision" transform="matrix(1,0,0,1,-23,59)" stroke-linecap="butt">
      <rect fill="none" x="398.837" width="150" height="60" y="136.664" clip-path="url(#clipPath2)"/>
      <text x="441.8214" xml:space="preserve" y="171.3779" clip-path="url(#clipPath2)" font-family="sans-serif" stroke="none">Granulizace</text>
    </g>
    <g fill="rgb(255,204,0)" text-rendering="geometricPrecision" shape-rendering="geometricPrecision" transform="matrix(1,0,0,1,-23,59)" stroke="rgb(255,204,0)">
      <path d="M218.837 166.664 L293.837 136.664 L368.837 166.664 L293.837 196.664 Z" fill-rule="evenodd" clip-path="url(#clipPath2)" stroke="none"/>
    </g>
    <g text-rendering="geometricPrecision" stroke-miterlimit="1.45" shape-rendering="geometricPrecision" transform="matrix(1,0,0,1,-23,59)" stroke-linecap="butt">
      <path fill="none" d="M218.837 166.664 L293.837 136.664 L368.837 166.664 L293.837 196.664 Z" fill-rule="evenodd" clip-path="url(#clipPath2)"/>
      <text x="261.4845" xml:space="preserve" y="171.3779" clip-path="url(#clipPath2)" font-family="sans-serif" stroke="none">Drag&amp;drop?</text>
    </g>
    <g fill="yellow" text-rendering="geometricPrecision" shape-rendering="geometricPrecision" transform="matrix(1,0,0,1,-23,59)" stroke="yellow">
      <path d="M593.8372 136.6641 L728.8372 136.6641 L713.8372 196.6641 L578.8372 196.6641 Z" fill-rule="evenodd" clip-path="url(#clipPath2)" stroke="none"/>
    </g>
    <g text-rendering="geometricPrecision" stroke-miterlimit="1.45" shape-rendering="geometricPrecision" transform="matrix(1,0,0,1,-23,59)" stroke-linecap="butt">
      <path fill="none" d="M593.8372 136.6641 L728.8372 136.6641 L713.8372 196.6641 L578.8372 196.6641 Z" fill-rule="evenodd" clip-path="url(#clipPath2)"/>
      <text x="613.1524" xml:space="preserve" y="171.3779" clip-path="url(#clipPath2)" font-family="sans-serif" stroke="none">Hodnoty ADSR</text>
    </g>
    <g fill="rgb(255,204,0)" text-rendering="geometricPrecision" shape-rendering="geometricPrecision" transform="matrix(1,0,0,1,-23,59)" stroke="rgb(255,204,0)">
      <rect x="578.837" width="150" height="60" y="226.664" clip-path="url(#clipPath2)" stroke="none"/>
    </g>
    <g text-rendering="geometricPrecision" stroke-miterlimit="1.45" shape-rendering="geometricPrecision" transform="matrix(1,0,0,1,-23,59)" stroke-linecap="butt">
      <rect fill="none" x="578.837" width="150" height="60" y="226.664" clip-path="url(#clipPath2)"/>
      <text x="598.8087" xml:space="preserve" y="261.3779" clip-path="url(#clipPath2)" font-family="sans-serif" stroke="none">Uložení do sampleru</text>
    </g>
    <g fill="rgb(255,204,0)" text-rendering="geometricPrecision" shape-rendering="geometricPrecision" transform="matrix(1,0,0,1,-23,59)" stroke="rgb(255,204,0)">
      <circle r="30" clip-path="url(#clipPath2)" cx="788.837" cy="256.664" stroke="none"/>
    </g>
    <g text-rendering="geometricPrecision" stroke-miterlimit="1.45" shape-rendering="geometricPrecision" transform="matrix(1,0,0,1,-23,59)" stroke-linecap="butt">
      <circle fill="none" r="30" clip-path="url(#clipPath2)" cx="788.837" cy="256.664"/>
      <text x="764.8311" xml:space="preserve" y="261.3779" clip-path="url(#clipPath2)" font-family="sans-serif" stroke="none">VÝSTUP</text>
      <path fill="none" d="M373.8248 16.6567 L416.9771 42.548" clip-path="url(#clipPath2)"/>
      <path d="M423.837 46.664 L416.1196 36.2026 L416.1196 42.0335 L410.9746 44.7775 Z" clip-path="url(#clipPath2)" stroke="none"/>
      <path fill="none" d="M573.8492 16.6567 L530.697 42.548" clip-path="url(#clipPath2)"/>
      <path d="M523.837 46.664 L536.6995 44.7775 L531.5545 42.0335 L531.5545 36.2026 Z" clip-path="url(#clipPath2)" stroke="none"/>
      <path fill="none" d="M473.837 106.664 L473.837 128.664" clip-path="url(#clipPath2)"/>
      <path d="M473.837 136.664 L478.837 124.664 L473.837 127.664 L468.837 124.664 Z" clip-path="url(#clipPath2)" stroke="none"/>
      <path fill="none" d="M473.837 196.664 L473.837 218.664" clip-path="url(#clipPath2)"/>
      <path d="M473.837 226.664 L478.837 214.664 L473.837 217.664 L468.837 214.664 Z" clip-path="url(#clipPath2)" stroke="none"/>
      <path fill="none" d="M188.837 166.664 L210.8553 166.664" clip-path="url(#clipPath2)"/>
      <path d="M218.8553 166.664 L206.8553 161.664 L209.8553 166.664 L206.8553 171.664 Z" clip-path="url(#clipPath2)" stroke="none"/>
      <path fill="none" d="M368.8517 166.664 L390.837 166.664" clip-path="url(#clipPath2)"/>
      <path d="M398.837 166.664 L386.837 161.664 L389.837 166.664 L386.837 171.664 Z" clip-path="url(#clipPath2)" stroke="none"/>
      <text x="373.1612" xml:space="preserve" y="181.101" clip-path="url(#clipPath2)" font-family="sans-serif" stroke="none">Ano</text>
      <path fill="none" d="M293.837 196.6786 L293.837 256.664 L390.837 256.664" clip-path="url(#clipPath2)"/>
      <path d="M398.837 256.664 L386.837 251.664 L389.837 256.664 L386.837 261.664 Z" clip-path="url(#clipPath2)" stroke="none"/>
      <text x="297.728" xml:space="preserve" y="215.7285" clip-path="url(#clipPath2)" font-family="sans-serif" stroke="none">Ne</text>
      <path fill="none" d="M653.837 196.6786 L653.837 218.664" clip-path="url(#clipPath2)"/>
      <path d="M653.837 226.664 L658.837 214.664 L653.837 217.664 L648.837 214.664 Z" clip-path="url(#clipPath2)" stroke="none"/>
      <path fill="none" d="M548.837 256.664 L570.837 256.664" clip-path="url(#clipPath2)"/>
      <path d="M578.837 256.664 L566.837 251.664 L569.837 256.664 L566.837 261.664 Z" clip-path="url(#clipPath2)" stroke="none"/>
      <path fill="none" d="M728.837 256.664 L750.837 256.664" clip-path="url(#clipPath2)"/>
      <path d="M758.837 256.664 L746.837 251.664 L749.837 256.664 L746.837 261.664 Z" clip-path="url(#clipPath2)" stroke="none"/>
    </g>
  </g>
</svg>
