<?xml version="1.0" encoding="UTF-8"?><svg xmlns="http://www.w3.org/2000/svg" xmlns:xlink="http://www.w3.org/1999/xlink" fill-opacity="1" color-rendering="auto" color-interpolation="auto" text-rendering="auto" stroke="black" stroke-linecap="square" width="1476" stroke-miterlimit="10" shape-rendering="auto" stroke-opacity="1" fill="black" stroke-dasharray="none" font-weight="normal" stroke-width="1" height="802" font-family="'Dialog'" font-style="normal" stroke-linejoin="miter" font-size="12px" stroke-dashoffset="0" image-rendering="auto">
  <!--Generated by ySVG 2.6-->
  <defs id="genericDefs"/>
  <g>
    <defs id="defs1">
      <clipPath clipPathUnits="userSpaceOnUse" id="clipPath1">
        <path d="M0 0 L1476 0 L1476 802 L0 802 L0 0 Z"/>
      </clipPath>
      <clipPath clipPathUnits="userSpaceOnUse" id="clipPath2">
        <path d="M-1396 111 L80 111 L80 913 L-1396 913 L-1396 111 Z"/>
      </clipPath>
    </defs>
    <g fill="white" text-rendering="geometricPrecision" shape-rendering="geometricPrecision" transform="translate(1396,-111)" stroke="white">
      <rect x="-1396" width="1476" height="802" y="111" clip-path="url(#clipPath2)" stroke="none"/>
    </g>
    <g fill="rgb(255,204,0)" text-rendering="geometricPrecision" shape-rendering="geometricPrecision" transform="matrix(1,0,0,1,1396,-111)" stroke="rgb(255,204,0)">
      <rect x="-1254.9486" width="188.08" height="69.04" y="253.3355" clip-path="url(#clipPath2)" stroke="none"/>
    </g>
    <g text-rendering="geometricPrecision" stroke-miterlimit="1.45" shape-rendering="geometricPrecision" transform="matrix(1,0,0,1,1396,-111)" stroke-linecap="butt">
      <rect fill="none" x="-1254.9486" width="188.08" height="69.04" y="253.3355" clip-path="url(#clipPath2)"/>
      <text x="-1234.2875" font-size="20px" y="283.461" clip-path="url(#clipPath2)" font-family="sans-serif" stroke="none" xml:space="preserve">Načtení souboru</text>
      <text x="-1205.9427" font-size="20px" y="307.963" clip-path="url(#clipPath2)" font-family="sans-serif" stroke="none" xml:space="preserve">do bufferu</text>
    </g>
    <g fill="rgb(255,204,0)" text-rendering="geometricPrecision" shape-rendering="geometricPrecision" transform="matrix(1,0,0,1,1396,-111)" stroke="rgb(255,204,0)">
      <rect x="-740.0686" width="164.4" height="69.04" y="253.3355" clip-path="url(#clipPath2)" stroke="none"/>
    </g>
    <g text-rendering="geometricPrecision" stroke-miterlimit="1.45" shape-rendering="geometricPrecision" transform="matrix(1,0,0,1,1396,-111)" stroke-linecap="butt">
      <rect fill="none" x="-740.0686" width="164.4" height="69.04" y="253.3355" clip-path="url(#clipPath2)"/>
      <text x="-711.228" font-size="20px" y="295.712" clip-path="url(#clipPath2)" font-family="sans-serif" stroke="none" xml:space="preserve">Granulizace</text>
    </g>
    <g fill="rgb(255,204,0)" text-rendering="geometricPrecision" shape-rendering="geometricPrecision" transform="matrix(1,0,0,1,1396,-111)" stroke="rgb(255,204,0)">
      <rect x="-1243.1086" width="164.4" height="69.04" y="131.0955" clip-path="url(#clipPath2)" stroke="none"/>
    </g>
    <g text-rendering="geometricPrecision" stroke-miterlimit="1.45" shape-rendering="geometricPrecision" transform="matrix(1,0,0,1,1396,-111)" stroke-linecap="butt">
      <rect fill="none" x="-1243.1086" width="164.4" height="69.04" y="131.0955" clip-path="url(#clipPath2)"/>
      <text x="-1205.933" font-size="20px" y="148.97" clip-path="url(#clipPath2)" font-family="sans-serif" stroke="none" xml:space="preserve">Zobrazení</text>
      <text x="-1203.7064" font-size="20px" y="173.472" clip-path="url(#clipPath2)" font-family="sans-serif" stroke="none" xml:space="preserve">amplitudy</text>
      <text x="-1189.8099" font-size="20px" y="197.9739" clip-path="url(#clipPath2)" font-family="sans-serif" stroke="none" xml:space="preserve">v čase</text>
    </g>
    <g fill="rgb(255,204,0)" text-rendering="geometricPrecision" shape-rendering="geometricPrecision" transform="matrix(1,0,0,1,1396,-111)" stroke="rgb(255,204,0)">
      <rect x="-997.5086" width="188.08" height="69.04" y="253.3355" clip-path="url(#clipPath2)" stroke="none"/>
    </g>
    <g text-rendering="geometricPrecision" stroke-miterlimit="1.45" shape-rendering="geometricPrecision" transform="matrix(1,0,0,1,1396,-111)" stroke-linecap="butt">
      <rect fill="none" x="-997.5086" width="188.08" height="69.04" y="253.3355" clip-path="url(#clipPath2)"/>
      <text x="-959.0546" font-size="20px" y="283.461" clip-path="url(#clipPath2)" font-family="sans-serif" stroke="none" xml:space="preserve">Výběr úseku</text>
      <text x="-989.0936" font-size="20px" y="307.963" clip-path="url(#clipPath2)" font-family="sans-serif" stroke="none" xml:space="preserve">načteného souboru</text>
    </g>
    <g fill="rgb(255,204,0)" text-rendering="geometricPrecision" shape-rendering="geometricPrecision" transform="matrix(1,0,0,1,1396,-111)" stroke="rgb(255,204,0)">
      <rect x="-420.0686" width="164.4" height="69.04" y="420.6842" clip-path="url(#clipPath2)" stroke="none"/>
    </g>
    <g text-rendering="geometricPrecision" stroke-miterlimit="1.45" shape-rendering="geometricPrecision" transform="matrix(1,0,0,1,1396,-111)" stroke-linecap="butt">
      <rect fill="none" x="-420.0686" width="164.4" height="69.04" y="420.6842" clip-path="url(#clipPath2)"/>
      <text x="-400.1294" font-size="20px" y="463.0607" clip-path="url(#clipPath2)" font-family="sans-serif" stroke="none" xml:space="preserve">Řazení grainů</text>
    </g>
    <g fill="red" text-rendering="geometricPrecision" shape-rendering="geometricPrecision" transform="matrix(1,0,0,1,1396,-111)" stroke="red">
      <rect x="-100.0686" width="164.4" height="69.04" y="420.6842" clip-path="url(#clipPath2)" stroke="none"/>
    </g>
    <g text-rendering="geometricPrecision" stroke-miterlimit="1.45" shape-rendering="geometricPrecision" transform="matrix(1,0,0,1,1396,-111)" stroke-linecap="butt">
      <rect fill="none" x="-100.0686" width="164.4" height="69.04" y="420.6842" clip-path="url(#clipPath2)"/>
      <text x="-37.3169" font-size="20px" y="463.0607" clip-path="url(#clipPath2)" font-family="sans-serif" stroke="none" xml:space="preserve">LFO</text>
    </g>
    <g fill="rgb(255,204,0)" text-rendering="geometricPrecision" shape-rendering="geometricPrecision" transform="matrix(1,0,0,1,1396,-111)" stroke="rgb(255,204,0)">
      <path d="M-1360.2286 287.8555 L-1345.2286 272.8555 L-1330.2286 287.8555 L-1345.2286 302.8555 Z" fill-rule="evenodd" clip-path="url(#clipPath2)" stroke="none"/>
    </g>
    <g text-rendering="geometricPrecision" stroke-miterlimit="1.45" shape-rendering="geometricPrecision" transform="matrix(1,0,0,1,1396,-111)" stroke-linecap="butt">
      <path fill="none" d="M-1360.2286 287.8555 L-1345.2286 272.8555 L-1330.2286 287.8555 L-1345.2286 302.8555 Z" fill-rule="evenodd" clip-path="url(#clipPath2)"/>
      <text x="-1378.5685" font-size="20px" y="257.35" clip-path="url(#clipPath2)" font-family="sans-serif" stroke="none" xml:space="preserve">VSTUP</text>
    </g>
    <g fill="rgb(255,204,0)" text-rendering="geometricPrecision" shape-rendering="geometricPrecision" transform="matrix(1,0,0,1,1396,-111)" stroke="rgb(255,204,0)">
      <path d="M-352.8689 850.0409 L-337.8689 835.0406 L-322.8688 850.0409 L-337.8689 865.0413 Z" fill-rule="evenodd" clip-path="url(#clipPath2)" stroke="none"/>
    </g>
    <g text-rendering="geometricPrecision" stroke-miterlimit="1.45" shape-rendering="geometricPrecision" transform="matrix(1,0,0,1,1396,-111)" stroke-linecap="butt">
      <path fill="none" d="M-352.8689 850.0409 L-337.8689 835.0406 L-322.8688 850.0409 L-337.8689 865.0413 Z" fill-rule="evenodd" clip-path="url(#clipPath2)"/>
      <text x="-377.8784" font-size="20px" y="891.1469" clip-path="url(#clipPath2)" font-family="sans-serif" stroke="none" xml:space="preserve">VÝSTUP</text>
    </g>
    <g fill="aqua" text-rendering="geometricPrecision" shape-rendering="geometricPrecision" transform="matrix(1,0,0,1,1396,-111)" stroke="aqua">
      <rect x="-797.5789" width="279.4205" height="69.04" y="420.6842" clip-path="url(#clipPath2)" stroke="none"/>
    </g>
    <g text-rendering="geometricPrecision" stroke-miterlimit="1.45" shape-rendering="geometricPrecision" transform="matrix(1,0,0,1,1396,-111)" stroke-linecap="butt">
      <rect fill="none" x="-797.5789" width="279.4205" height="69.04" y="420.6842" clip-path="url(#clipPath2)"/>
      <text x="-785.1538" font-size="20px" y="463.0607" clip-path="url(#clipPath2)" font-family="sans-serif" stroke="none" xml:space="preserve">Barva snímaná webkamerou</text>
    </g>
    <g fill="rgb(255,204,0)" text-rendering="geometricPrecision" shape-rendering="geometricPrecision" transform="matrix(1,0,0,1,1396,-111)" stroke="rgb(255,204,0)">
      <rect x="-420.0686" width="164.4" height="199.8558" y="563.25" clip-path="url(#clipPath2)" stroke="none"/>
    </g>
    <g text-rendering="geometricPrecision" stroke-miterlimit="1.45" shape-rendering="geometricPrecision" transform="matrix(1,0,0,1,1396,-111)" stroke-linecap="butt">
      <rect fill="none" x="-420.0686" width="164.4" height="199.8558" y="563.25" clip-path="url(#clipPath2)"/>
      <text x="-404.5532" font-size="20px" y="634.2814" clip-path="url(#clipPath2)" font-family="sans-serif" stroke="none" xml:space="preserve">Ekvalizační filtr</text>
      <text x="-374.5678" font-size="20px" y="658.7833" clip-path="url(#clipPath2)" font-family="sans-serif" stroke="none" xml:space="preserve">Panning</text>
      <text x="-363.435" font-size="20px" y="683.2853" clip-path="url(#clipPath2)" font-family="sans-serif" stroke="none" xml:space="preserve">Delay</text>
      <text x="-358.9917" font-size="20px" y="707.7872" clip-path="url(#clipPath2)" font-family="sans-serif" stroke="none" xml:space="preserve">Gain</text>
    </g>
    <g fill="rgb(255,204,0)" text-rendering="geometricPrecision" shape-rendering="geometricPrecision" transform="matrix(1,0,0,1,1396,-111)" stroke="rgb(255,204,0)">
      <rect x="-506.3086" width="336.88" height="118.6059" y="228.5526" clip-path="url(#clipPath2)" stroke="none"/>
    </g>
    <g text-rendering="geometricPrecision" stroke-miterlimit="1.45" shape-rendering="geometricPrecision" transform="matrix(1,0,0,1,1396,-111)" stroke-linecap="butt">
      <rect fill="none" x="-506.3086" width="336.88" height="118.6059" y="228.5526" clip-path="url(#clipPath2)"/>
      <text x="-394.0112" font-size="20px" y="246.7081" clip-path="url(#clipPath2)" font-family="sans-serif" stroke="none" xml:space="preserve">Délka grainů</text>
      <text x="-397.8979" font-size="20px" y="271.21" clip-path="url(#clipPath2)" font-family="sans-serif" stroke="none" xml:space="preserve">ADSR obálka</text>
      <text x="-426.7993" font-size="20px" y="295.712" clip-path="url(#clipPath2)" font-family="sans-serif" stroke="none" xml:space="preserve">Rychlost přehrávání</text>
      <text x="-402.9077" font-size="20px" y="320.2139" clip-path="url(#clipPath2)" font-family="sans-serif" stroke="none" xml:space="preserve">Hustota grainů</text>
      <text x="-390.1245" font-size="20px" y="344.7159" clip-path="url(#clipPath2)" font-family="sans-serif" stroke="none" xml:space="preserve">Počet hlasů</text>
      <path fill="none" d="M-1160.9086 253.3355 L-1160.9086 208.0953" clip-path="url(#clipPath2)"/>
      <path d="M-1160.9086 200.0953 L-1165.9086 212.0953 L-1160.9086 209.0953 L-1155.9086 212.0953 Z" clip-path="url(#clipPath2)" stroke="none"/>
      <path fill="none" d="M-1066.8687 287.8555 L-1005.5086 287.8555" clip-path="url(#clipPath2)"/>
      <path d="M-997.5086 287.8555 L-1009.5086 282.8555 L-1006.5086 287.8555 L-1009.5086 292.8555 Z" clip-path="url(#clipPath2)" stroke="none"/>
      <path fill="none" d="M-809.4286 287.8555 L-748.0686 287.8555" clip-path="url(#clipPath2)"/>
      <path d="M-740.0686 287.8555 L-752.0686 282.8555 L-749.0686 287.8555 L-752.0686 292.8555 Z" clip-path="url(#clipPath2)" stroke="none"/>
      <path fill="none" d="M-100.0686 455.2042 L-247.6686 455.2042" clip-path="url(#clipPath2)"/>
      <path d="M-255.6686 455.2042 L-243.6686 460.2042 L-246.6686 455.2042 L-243.6686 450.2042 Z" clip-path="url(#clipPath2)" stroke="none"/>
      <path fill="none" d="M-1330.2437 287.8555 L-1262.9486 287.8555" clip-path="url(#clipPath2)"/>
      <path d="M-1254.9486 287.8555 L-1266.9486 282.8555 L-1263.9486 287.8555 L-1266.9486 292.8555 Z" clip-path="url(#clipPath2)" stroke="none"/>
      <path fill="none" d="M-708.53 420.6842 L-846.1961 326.8803" clip-path="url(#clipPath2)"/>
      <path d="M-852.8073 322.3755 L-845.706 333.2646 L-845.3697 327.4434 L-840.0751 325.0007 Z" clip-path="url(#clipPath2)" stroke="none"/>
      <path fill="none" d="M-337.8686 489.7242 L-337.8686 555.2499" clip-path="url(#clipPath2)"/>
      <path d="M-337.8686 563.2499 L-332.8686 551.2499 L-337.8686 554.2499 L-342.8686 551.2499 Z" clip-path="url(#clipPath2)" stroke="none"/>
      <path fill="none" d="M-70.983 489.7242 L-248.9608 605.3951" clip-path="url(#clipPath2)"/>
      <path d="M-255.6686 609.7546 L-242.8822 607.4078 L-248.1224 604.8502 L-248.3316 599.023 Z" clip-path="url(#clipPath2)" stroke="none"/>
      <path fill="none" d="M-604.7542 489.7242 L-426.7764 605.3951" clip-path="url(#clipPath2)"/>
      <path d="M-420.0686 609.7546 L-427.4057 599.023 L-427.6149 604.8502 L-432.855 607.4078 Z" clip-path="url(#clipPath2)" stroke="none"/>
      <path fill="none" d="M-337.8686 763.1058 L-337.8686 827.0553" clip-path="url(#clipPath2)"/>
      <path d="M-337.8686 835.0553 L-332.8686 823.0553 L-337.8686 826.0553 L-342.8686 823.0553 Z" clip-path="url(#clipPath2)" stroke="none"/>
      <path fill="none" d="M-575.6686 287.8555 L-514.3087 287.8555" clip-path="url(#clipPath2)"/>
      <path d="M-506.3087 287.8555 L-518.3087 282.8555 L-515.3087 287.8555 L-518.3087 292.8555 Z" clip-path="url(#clipPath2)" stroke="none"/>
      <path fill="none" d="M-83.8769 420.6842 L-217.3819 350.8658" clip-path="url(#clipPath2)"/>
      <path d="M-224.471 347.1585 L-216.1544 357.1502 L-216.4958 351.3292 L-211.5202 348.2888 Z" clip-path="url(#clipPath2)" stroke="none"/>
      <path fill="none" d="M-591.8604 420.6842 L-458.3553 350.8658" clip-path="url(#clipPath2)"/>
      <path d="M-451.2662 347.1585 L-464.217 348.2888 L-459.2415 351.3292 L-459.5828 357.1502 Z" clip-path="url(#clipPath2)" stroke="none"/>
      <path fill="none" d="M-337.8686 347.1585 L-337.8686 412.6842" clip-path="url(#clipPath2)"/>
      <path d="M-337.8686 420.6842 L-332.8686 408.6842 L-337.8686 411.6842 L-342.8686 408.6842 Z" clip-path="url(#clipPath2)" stroke="none"/>
    </g>
  </g>
</svg>
